<mxfile host="app.diagrams.net" agent="Mozilla/5.0 (Windows NT 10.0; Win64; x64) AppleWebKit/537.36 (KHTML, like Gecko) Chrome/135.0.0.0 Safari/537.36" version="26.2.14">
  <diagram name="Página-1" id="k6gE_lqXu5SQHlqSskun">
    <mxGraphModel dx="1042" dy="588" grid="1" gridSize="10" guides="1" tooltips="1" connect="1" arrows="1" fold="1" page="1" pageScale="1" pageWidth="827" pageHeight="1169" math="0" shadow="0">
      <root>
        <mxCell id="0" />
        <mxCell id="1" parent="0" />
        <mxCell id="1Z_Db7fVH4fadPyimnko-30" style="edgeStyle=orthogonalEdgeStyle;rounded=0;orthogonalLoop=1;jettySize=auto;html=1;entryX=0;entryY=0.5;entryDx=0;entryDy=0;exitX=1;exitY=0.3333333333333333;exitDx=0;exitDy=0;exitPerimeter=0;" edge="1" parent="1" source="1Z_Db7fVH4fadPyimnko-20" target="1Z_Db7fVH4fadPyimnko-29">
          <mxGeometry relative="1" as="geometry" />
        </mxCell>
        <mxCell id="1Z_Db7fVH4fadPyimnko-31" value="&lt;div&gt;ECD/ ECF files&amp;nbsp;&amp;nbsp;&lt;/div&gt;&lt;div&gt;validation&lt;/div&gt;" style="edgeLabel;html=1;align=center;verticalAlign=middle;resizable=0;points=[];textShadow=1;" vertex="1" connectable="0" parent="1Z_Db7fVH4fadPyimnko-30">
          <mxGeometry x="-0.3455" y="-4" relative="1" as="geometry">
            <mxPoint x="9" y="78" as="offset" />
          </mxGeometry>
        </mxCell>
        <mxCell id="6" value="GOV.BR" style="whiteSpace=wrap;strokeWidth=2;" parent="1" vertex="1">
          <mxGeometry x="578.5" y="430" width="113" height="54" as="geometry" />
        </mxCell>
        <mxCell id="7" value="" style="whiteSpace=wrap;strokeWidth=2;" parent="1" vertex="1">
          <mxGeometry x="242" y="400" as="geometry" />
        </mxCell>
        <mxCell id="8" value="" style="whiteSpace=wrap;strokeWidth=2;" parent="1" vertex="1">
          <mxGeometry x="355" y="508" as="geometry" />
        </mxCell>
        <mxCell id="1Z_Db7fVH4fadPyimnko-23" style="edgeStyle=orthogonalEdgeStyle;rounded=0;orthogonalLoop=1;jettySize=auto;html=1;exitX=1;exitY=0.3333333333333333;exitDx=0;exitDy=0;exitPerimeter=0;startArrow=classic;startFill=1;" edge="1" parent="1" source="1Z_Db7fVH4fadPyimnko-20" target="3">
          <mxGeometry relative="1" as="geometry" />
        </mxCell>
        <mxCell id="1Z_Db7fVH4fadPyimnko-24" value="Access Sage X3 to generate all&amp;nbsp;&lt;div&gt;ECD and ECF files for obligations&lt;/div&gt;" style="edgeLabel;html=1;align=center;verticalAlign=middle;resizable=0;points=[];textShadow=1;" vertex="1" connectable="0" parent="1Z_Db7fVH4fadPyimnko-23">
          <mxGeometry x="-0.0049" y="-2" relative="1" as="geometry">
            <mxPoint x="-4" y="-2" as="offset" />
          </mxGeometry>
        </mxCell>
        <mxCell id="1Z_Db7fVH4fadPyimnko-20" value="User&amp;nbsp;&lt;div&gt;(Acc. / Fisc.)&lt;span style=&quot;background-color: transparent; color: light-dark(rgb(0, 0, 0), rgb(255, 255, 255));&quot;&gt;&amp;nbsp;&lt;/span&gt;&lt;/div&gt;" style="shape=umlActor;verticalLabelPosition=bottom;verticalAlign=top;html=1;outlineConnect=0;" vertex="1" parent="1">
          <mxGeometry x="70" y="44" width="30" height="60" as="geometry" />
        </mxCell>
        <mxCell id="1Z_Db7fVH4fadPyimnko-28" value="&lt;div style=&quot;text-align: left;&quot;&gt;&lt;b style=&quot;color: light-dark(rgb(0, 0, 0), rgb(255, 255, 255));&quot;&gt;Obligations:&amp;nbsp;&lt;/b&gt;&lt;/div&gt;&lt;div style=&quot;text-align: left;&quot;&gt;&lt;b style=&quot;color: light-dark(rgb(0, 0, 0), rgb(255, 255, 255));&quot;&gt;*&amp;nbsp; &amp;nbsp; ECD&lt;/b&gt;&lt;span style=&quot;color: light-dark(rgb(0, 0, 0), rgb(255, 255, 255));&quot;&gt; (Escrituração Contábil Digital – Digital Accounting Bookkeeping&lt;/span&gt;&lt;span style=&quot;color: light-dark(rgb(0, 0, 0), rgb(255, 255, 255));&quot;&gt;)&lt;/span&gt;&lt;/div&gt;&lt;div style=&quot;text-align: left;&quot;&gt;&lt;span style=&quot;color: light-dark(rgb(0, 0, 0), rgb(255, 255, 255));&quot;&gt;**&amp;nbsp; &amp;nbsp;&lt;/span&gt;&lt;strong data-start=&quot;501&quot; data-end=&quot;508&quot; style=&quot;color: light-dark(rgb(0, 0, 0), rgb(255, 255, 255));&quot;&gt;ECF&lt;/strong&gt;&lt;span style=&quot;color: light-dark(rgb(0, 0, 0), rgb(255, 255, 255));&quot;&gt; (Escrituração Contábil Fiscal – Fiscal Accounting Bookkeeping)&lt;/span&gt;&lt;/div&gt;&lt;div style=&quot;text-align: left;&quot;&gt;&lt;span style=&quot;color: light-dark(rgb(0, 0, 0), rgb(255, 255, 255));&quot;&gt;***&amp;nbsp;&lt;b&gt;SPED &lt;/b&gt;(Sistema Público de Escrituração Digital -&amp;nbsp;&lt;/span&gt;&lt;span style=&quot;text-align: center;&quot;&gt;Public Digital Bookkeeping System)&lt;/span&gt;&lt;/div&gt;" style="text;html=1;align=center;verticalAlign=middle;resizable=0;points=[];autosize=1;strokeColor=none;fillColor=none;fontSize=10;labelBorderColor=none;textShadow=1;labelBackgroundColor=default;" vertex="1" parent="1">
          <mxGeometry x="20" y="535" width="410" height="60" as="geometry" />
        </mxCell>
        <mxCell id="1Z_Db7fVH4fadPyimnko-34" style="edgeStyle=orthogonalEdgeStyle;rounded=0;orthogonalLoop=1;jettySize=auto;html=1;entryX=0;entryY=0.5;entryDx=0;entryDy=0;startArrow=none;startFill=0;" edge="1" parent="1" source="1Z_Db7fVH4fadPyimnko-29" target="5">
          <mxGeometry relative="1" as="geometry" />
        </mxCell>
        <mxCell id="1Z_Db7fVH4fadPyimnko-43" value="sends the SPED validated data to the&amp;nbsp;&lt;div&gt;&lt;strong data-end=&quot;1002&quot; data-start=&quot;992&quot;&gt;GOV.BR&lt;/strong&gt;&amp;nbsp;(brazilian government platform)&lt;/div&gt;" style="edgeStyle=orthogonalEdgeStyle;rounded=0;orthogonalLoop=1;jettySize=auto;html=1;exitX=0.5;exitY=1;exitDx=0;exitDy=0;entryX=0;entryY=0.5;entryDx=0;entryDy=0;labelBorderColor=none;textShadow=1;" edge="1" parent="1" source="1Z_Db7fVH4fadPyimnko-29" target="6">
          <mxGeometry x="0.1987" y="17" relative="1" as="geometry">
            <mxPoint as="offset" />
          </mxGeometry>
        </mxCell>
        <mxCell id="1Z_Db7fVH4fadPyimnko-29" value="IOB Client" style="rounded=0;whiteSpace=wrap;html=1;" vertex="1" parent="1">
          <mxGeometry x="170" y="300" width="120" height="60" as="geometry" />
        </mxCell>
        <mxCell id="1Z_Db7fVH4fadPyimnko-32" value="" style="swimlane;startSize=0;" vertex="1" parent="1">
          <mxGeometry x="510" y="44" width="270" height="350" as="geometry" />
        </mxCell>
        <mxCell id="3" value="Sage X3" style="whiteSpace=wrap;strokeWidth=2;" parent="1Z_Db7fVH4fadPyimnko-32" vertex="1">
          <mxGeometry x="77.5" y="66" width="142.5" height="54" as="geometry" />
        </mxCell>
        <mxCell id="5" value="IOB Server" style="whiteSpace=wrap;strokeWidth=2;" parent="1Z_Db7fVH4fadPyimnko-32" vertex="1">
          <mxGeometry x="77.5" y="190" width="142.5" height="54" as="geometry" />
        </mxCell>
        <mxCell id="1Z_Db7fVH4fadPyimnko-35" value="SERVER" style="text;html=1;align=center;verticalAlign=middle;resizable=0;points=[];autosize=1;strokeColor=none;fillColor=none;" vertex="1" parent="1Z_Db7fVH4fadPyimnko-32">
          <mxGeometry x="220" width="70" height="30" as="geometry" />
        </mxCell>
        <mxCell id="1Z_Db7fVH4fadPyimnko-36" value="aggregates and processes&amp;nbsp;&lt;div&gt;all incoming&amp;nbsp;&lt;/div&gt;&lt;div&gt;data from different IOB Clients&lt;/div&gt;" style="edgeLabel;html=1;align=center;verticalAlign=middle;resizable=0;points=[];textShadow=1;" vertex="1" connectable="0" parent="1">
          <mxGeometry x="430" y="320" as="geometry">
            <mxPoint x="-21" y="-35" as="offset" />
          </mxGeometry>
        </mxCell>
        <mxCell id="1Z_Db7fVH4fadPyimnko-38" style="edgeStyle=orthogonalEdgeStyle;rounded=0;orthogonalLoop=1;jettySize=auto;html=1;entryX=1;entryY=0.75;entryDx=0;entryDy=0;" edge="1" parent="1" source="5" target="1Z_Db7fVH4fadPyimnko-29">
          <mxGeometry relative="1" as="geometry">
            <mxPoint x="290" y="400" as="targetPoint" />
            <Array as="points">
              <mxPoint x="640" y="345" />
            </Array>
          </mxGeometry>
        </mxCell>
        <mxCell id="1Z_Db7fVH4fadPyimnko-39" value="&amp;nbsp;returns the processed and validated&lt;div&gt;&amp;nbsp;results to the &lt;span data-end=&quot;915&quot; data-start=&quot;901&quot;&gt;Client&lt;/span&gt;&lt;/div&gt;" style="edgeLabel;html=1;align=center;verticalAlign=middle;resizable=0;points=[];textShadow=1;" vertex="1" connectable="0" parent="1Z_Db7fVH4fadPyimnko-38">
          <mxGeometry x="-0.085" y="4" relative="1" as="geometry">
            <mxPoint x="123" y="-29" as="offset" />
          </mxGeometry>
        </mxCell>
      </root>
    </mxGraphModel>
  </diagram>
</mxfile>
